<svg width="61" height="40" viewBox="0 0 61 40" fill="none" xmlns="http://www.w3.org/2000/svg">
	<path fill-rule="evenodd" clip-rule="evenodd"
		d="M16.5425 0.187355C16.733 0.288767 17.2709 0.626807 17.7191 0.94231C18.1786 1.24654 19.0302 1.70853 19.6129 1.96769C20.98 2.5649 26.0899 4.26636 26.5382 4.26636C26.7174 4.26636 27.6251 4.49171 28.544 4.76215C33.2841 6.19318 36.3321 7.50026 38.9655 9.24679C40.4895 10.2609 42.9211 12.661 43.8176 14.0357C44.1426 14.5427 44.4451 14.9371 44.49 14.9146C44.5348 14.892 44.8373 14.4751 45.1623 13.9906C46.9889 11.2976 49.4318 9.96795 52.5022 9.96795C53.9813 9.97921 54.3063 10.0581 55.8639 10.8018L56.7604 11.2187L57.825 11.1285C58.4077 11.0722 59.0464 11.0497 59.2481 11.0835C60.0101 11.2187 60.6488 12.1539 60.4695 12.8751C60.4359 13.0328 60.0773 13.585 59.6963 14.092C58.7999 15.2864 58.5645 15.6808 58.3292 16.4358C57.8698 17.9006 56.8164 19.4668 55.7855 20.2556C55.4605 20.4922 54.6873 20.988 54.071 21.3486C52.1324 22.4641 51.5273 23.0275 49.6447 25.4614C48.7258 26.6558 46.2605 29.2136 45.1847 30.0813C42.5289 32.2334 39.4361 33.7433 36.3657 34.3856C33.7659 34.9377 33.2281 34.9715 27.401 34.9715H21.9101L21.1481 35.242C19.7474 35.7378 17.9432 36.9885 16.2063 38.6449C15.5788 39.2421 14.9513 39.7942 14.8056 39.8618C14.4582 40.0534 13.8867 40.0421 13.5281 39.8506C13.0799 39.6252 9.12422 35.8392 4.6979 31.4221C1.15684 27.8953 0.674992 27.3657 0.562933 26.9375C0.46208 26.5318 0.473286 26.3854 0.663786 25.9684C0.943933 25.3149 1.34734 25.0557 2.07573 25.0557C2.56878 25.0557 2.7817 25.1459 3.87987 25.8107C7.65625 28.1206 12.7885 29.2925 16.3856 28.6615C17.82 28.4136 20.1732 27.6136 20.1732 27.3769C20.1732 27.3431 19.8594 27.1854 19.4784 27.0389C14.7832 25.236 9.56125 21.4275 7.11837 18.0358C5.43749 15.6921 4.97805 14.4639 5.48231 13.6526C5.97537 12.8638 6.67014 12.7849 8.17172 13.3258C9.6621 13.8554 10.7827 14.0019 13.5617 14.0131C16.3408 14.0131 19.6129 13.7765 19.6129 13.5737C19.6129 13.5061 19.4897 13.3145 19.344 13.1455C18.6156 12.368 17.1588 9.90034 16.4529 8.30029C15.3435 5.74246 14.2677 2.09164 14.4022 1.33669C14.503 0.818362 14.8168 0.390177 15.265 0.176086C15.7469 -0.0605413 16.1167 -0.0605401 16.5425 0.187355ZM19.6914 7.70308C19.4224 7.16222 18.4923 4.96497 18.4923 4.87483C18.4923 4.79595 18.582 4.82975 19.4672 5.17906C21.0473 5.81007 23.21 6.51995 26.1123 7.36505C30.6507 8.6834 33.1384 9.60737 35.2787 10.7454C36.2312 11.2525 37.8337 12.2891 38.3267 12.7173L38.6069 12.9652L37.8225 12.8976C37.3966 12.8638 36.5898 12.7849 36.0295 12.7173C34.584 12.537 31.0429 12.5483 28.2414 12.7511C26.9192 12.8525 25.2831 12.954 24.6219 12.999L23.4117 13.0666L23.0643 12.6948C22.1342 11.7032 20.431 9.17919 19.6914 7.70308ZM48.8378 14.385C49.3309 13.8329 50.2274 13.3258 51.0566 13.123C52.5022 12.7737 53.7236 12.9878 54.9899 13.8103L55.6734 14.261L55.2476 15.3428C54.5528 17.1344 53.9477 17.7428 51.6057 19.0387C50.6308 19.5795 48.7258 21.326 47.9974 22.3402C46.4062 24.56 43.9633 27.0952 42.204 28.346C40.8593 29.3038 38.8758 30.2953 37.2061 30.8362C34.5616 31.7038 31.5696 31.9517 26.1123 31.794C24.4763 31.7489 22.7282 31.7376 22.2351 31.7827C20.0387 31.963 17.4726 33.3039 14.6039 35.7716L14.122 36.1885L12.867 34.9941C12.1722 34.3405 11.018 33.2588 10.312 32.5715L9.02337 31.332L9.69572 31.4897C11.6568 31.9517 14.4582 32.1095 16.3632 31.8616C18.9742 31.5461 21.4619 30.5207 23.7703 28.8192L24.3978 28.3573L25.8434 28.6164C27.6924 28.9432 31.0541 28.977 32.735 28.684C33.9452 28.4699 36.1752 27.8502 37.2958 27.4107C38.4612 26.9488 40.2205 25.9572 41.2963 25.1346C42.641 24.1205 44.2098 22.5317 44.3779 22.0021C44.6805 21.0782 43.9409 20.0415 42.966 20.0415C42.2936 20.0415 42.1143 20.1542 41.1842 21.0894C38.5845 23.7261 35.2563 25.2698 31.3231 25.6755C24.8685 26.3516 16.7666 23.2529 11.4887 18.1034L10.3681 17.0104L13.1695 16.9992C16.0943 16.9992 18.2458 16.8527 22.5713 16.3794C27.3674 15.8611 29.2388 15.7371 32.4436 15.7259C35.9063 15.7033 36.9932 15.8047 39.1336 16.3343C40.1197 16.571 40.9153 16.8752 42.1255 17.4499C43.5711 18.1372 43.8512 18.2386 44.4115 18.2386C45.5769 18.2386 46.2941 17.709 47.7509 15.7597C48.1431 15.2301 48.6361 14.6103 48.8378 14.385Z"
		fill="#2A61C3" />
</svg>