<svg width="285" height="189" viewBox="0 0 285 189" fill="none" xmlns="http://www.w3.org/2000/svg">
	<path fill-rule="evenodd" clip-rule="evenodd"
		d="M76.2019 0.885252C77.1068 1.36442 79.6617 2.96166 81.7908 4.45241C83.9732 5.88992 88.0185 8.07281 90.7864 9.29735C97.2802 12.1191 121.552 20.1585 123.681 20.1585C124.533 20.1585 128.844 21.2234 133.209 22.5011C155.724 29.2628 170.202 35.4387 182.711 43.6911C189.95 48.4828 201.5 59.8232 205.759 66.3186C207.302 68.7144 208.739 70.5779 208.952 70.4714C209.165 70.3649 210.602 68.395 212.146 66.1056C220.822 53.381 232.426 47.0985 247.01 47.0985C254.036 47.1518 255.58 47.5245 262.979 51.0384L267.237 53.0083L272.294 52.5824C275.061 52.3162 278.095 52.2097 279.053 52.3694C282.673 53.0083 285.707 57.4273 284.855 60.8347C284.696 61.5801 282.992 64.1889 281.183 66.5848C276.924 72.2283 275.807 74.0918 274.689 77.6589C272.506 84.5803 267.503 91.9808 262.606 95.7077C261.062 96.8257 257.39 99.1683 254.462 100.872C245.254 106.143 242.379 108.805 233.437 120.305C229.072 125.949 217.362 138.034 212.252 142.134C199.637 152.303 184.947 159.437 170.362 162.472C158.013 165.081 155.458 165.241 127.78 165.241H101.698L98.0786 166.518C91.4251 168.861 82.8554 174.771 74.6051 182.597C71.6243 185.419 68.6436 188.028 67.9516 188.347C66.3015 189.252 63.5869 189.199 61.8836 188.294C59.7545 187.229 40.965 169.34 19.94 148.47C3.12001 131.805 0.831212 129.303 0.298933 127.28C-0.180118 125.363 -0.12689 124.671 0.777985 122.701C2.10868 119.613 4.02488 118.388 7.4847 118.388C9.82673 118.388 10.8381 118.814 16.0544 121.956C33.9922 132.87 58.3706 138.407 75.4567 135.426C82.2699 134.254 93.4478 130.474 93.4478 129.356C93.4478 129.196 91.9574 128.451 90.1476 127.759C67.8451 119.24 43.0409 101.245 31.4373 85.2192C23.4531 74.145 21.2707 68.3417 23.666 64.5084C26.008 60.7815 29.3081 60.4088 36.4407 62.9644C43.52 65.4667 48.8428 66.1589 62.0433 66.2121C75.2438 66.2121 90.7864 65.094 90.7864 64.1357C90.7864 63.8162 90.2009 62.9111 89.5089 62.1125C86.0491 58.4389 79.1295 46.7791 75.7761 39.2188C70.5065 27.1331 65.3967 9.88301 66.0354 6.31585C66.5144 3.86676 68.0048 1.84359 70.1339 0.832006C72.4227 -0.286058 74.1793 -0.286052 76.2019 0.885252ZM91.159 36.3971C89.8815 33.8415 85.4636 23.4595 85.4636 23.0336C85.4636 22.6609 85.8894 22.8206 90.0944 24.4711C97.5995 27.4526 107.873 30.8068 121.659 34.7998C143.216 41.029 155.032 45.3948 165.199 50.7722C169.723 53.168 177.335 58.0662 179.677 60.0894L181.008 61.2607L177.282 60.9412C175.259 60.7815 171.427 60.4088 168.765 60.0894C161.899 59.2375 145.079 59.2908 131.772 60.2491C125.491 60.7283 117.72 61.2074 114.579 61.4204L108.831 61.7398L107.181 59.9829C102.763 55.2977 94.672 43.3717 91.159 36.3971ZM229.605 67.9691C231.947 65.3602 236.205 62.9644 240.144 62.0061C247.01 60.3556 252.812 61.3672 258.827 65.2538L262.074 67.3834L260.051 72.4945C256.751 80.9599 253.877 83.8349 242.752 89.9576C238.121 92.5132 229.072 100.766 225.613 105.557C218.054 116.046 206.451 128.025 198.094 133.935C191.706 138.46 182.285 143.145 174.354 145.701C161.792 149.801 147.581 150.972 121.659 150.227C113.887 150.014 105.584 149.96 103.242 150.173C92.809 151.025 80.6198 157.361 66.9935 169.021L64.7047 170.991L58.7432 165.347C55.443 162.259 49.9606 157.148 46.6072 153.9L40.486 148.044L43.6797 148.789C52.9946 150.972 66.3015 151.717 75.3503 150.546C87.7524 149.055 99.569 144.21 110.534 136.171L113.515 133.988L120.381 135.213C129.164 136.757 145.132 136.916 153.116 135.532C158.865 134.52 169.457 131.592 174.78 129.516C180.316 127.333 188.672 122.648 193.782 118.761C200.17 113.969 207.622 106.462 208.42 103.96C209.857 99.5943 206.344 94.6961 201.713 94.6961C198.52 94.6961 197.668 95.2285 193.25 99.6475C180.901 112.106 165.093 119.4 146.41 121.317C115.75 124.511 77.2665 109.87 52.1961 85.5386L46.8734 80.3742L60.1803 80.321C74.0728 80.321 84.2926 79.6289 104.839 77.3927C127.62 74.9436 136.509 74.358 151.732 74.3047C168.18 74.1983 173.343 74.6774 183.509 77.1798C188.193 78.2978 191.973 79.7353 197.721 82.4506C204.588 85.6983 205.918 86.1775 208.58 86.1775C214.115 86.1775 217.522 83.6752 224.442 74.4645C226.305 71.9621 228.647 69.0339 229.605 67.9691Z"
		fill="white" />
</svg>