<svg width="134" height="127" viewBox="0 0 134 127" fill="none" xmlns="http://www.w3.org/2000/svg">
	<path
		d="M97.9414 53.2658L85.8187 26.0684C84.4114 22.911 80.6977 21.4872 77.5402 22.8945L54.192 33.3015C51.0345 34.7089 49.6108 38.4225 51.0181 41.58L68.1247 79.9589C69.532 83.1162 73.2456 84.54 76.4031 83.1326L80.2895 81.4003L85.4853 83.3215C85.9766 83.5033 86.3808 83.8822 86.5942 84.361L89.9005 91.7787C90.3616 92.8132 91.5741 93.278 92.6086 92.8169L112.737 83.8453C113.771 83.3842 114.236 82.1717 113.775 81.1372L103.808 58.7758C102.674 56.2322 100.544 54.2384 97.9414 53.2658ZM82.0725 27.7382L92.6308 51.4261L86.9668 49.4718L77.1914 27.5406L79.2099 26.6409C80.3018 26.1542 81.5859 26.6465 82.0725 27.7382ZM92.2097 71.5968L88.4518 73.2718L84.3943 64.1686L89.568 66.3236L91.2574 70.1138C91.5043 70.6677 91.8278 71.1644 92.2097 71.5968ZM69.5801 30.9331L73.4452 29.2104L82.3904 49.2793C81.2321 49.578 79.6936 50.4976 78.7993 51.6165L69.5801 30.9331ZM71.8709 78.2892L54.7643 39.9102C54.2776 38.8184 54.7699 37.5345 55.8617 37.0478L65.8337 32.603L84.7053 74.9417L74.7332 79.3865C73.6416 79.8731 72.3575 79.3809 71.8709 78.2892ZM109.194 80.9339L92.8119 88.2357L90.3405 82.6913C89.6801 81.2096 88.429 80.0372 86.908 79.4747L85.6519 79.0103L98.9882 73.066C100.023 72.6049 100.487 71.3924 100.026 70.3579C99.5653 69.3235 98.3528 68.8586 97.3183 69.3197C96.4331 69.7143 95.3949 69.3213 95.0037 68.4438L92.9824 63.9089C92.7692 63.4307 92.3812 63.052 91.8978 62.8508L83.1748 59.2175C81.6651 58.5887 80.8786 56.9323 81.3454 55.3648C81.8025 53.7249 83.8032 52.5926 85.5879 53.3348L96.3593 57.0514C98.0037 57.6189 99.3532 58.8559 100.062 60.4456L109.194 80.9338L109.194 80.9339Z"
		fill="#DCE9FF" />
	<path
		d="M48.012 55.5162C47.3556 54.0435 47.3122 52.403 47.8898 50.897C48.2953 49.8396 47.7667 48.6535 46.7093 48.248C45.6521 47.8423 44.4658 48.3709 44.0602 49.4284C43.0902 51.9574 43.1632 54.7125 44.2657 57.186C45.3683 59.6597 47.3684 61.5557 49.8976 62.5249C50.8243 62.8637 52.0779 62.506 52.5466 61.3437C52.9518 60.2863 52.423 59.1002 51.3655 58.6949C49.8595 58.1179 48.6685 56.989 48.012 55.5162Z"
		fill="#DCE9FF" />
	<path
		d="M40.6609 58.7927C39.2842 55.7041 39.0994 52.2332 40.1405 49.0192C40.4895 47.9417 39.8989 46.7852 38.8214 46.4362C37.7442 46.0871 36.5875 46.6777 36.2384 47.7552C34.8848 51.9345 35.1249 56.4473 36.9146 60.4625C38.8476 64.7992 42.3539 68.123 46.788 69.8223C47.7146 70.1612 48.9683 69.8033 49.4369 68.6412C49.842 67.5836 49.3133 66.3977 48.2558 65.9924C44.8449 64.6853 42.1477 62.1285 40.6609 58.7927Z"
		fill="#DCE9FF" />
	<path
		d="M33.1573 62.1371C30.9923 57.2799 30.7161 51.8257 32.3795 46.7791C32.7339 45.7034 32.1493 44.544 31.0737 44.1895C29.9978 43.835 28.8385 44.4196 28.4841 45.4952C26.5007 51.5127 26.8299 58.0161 29.4111 63.8069C31.9922 69.5978 36.6086 74.1902 42.4098 76.738C43.3477 77.1214 44.5426 76.8326 45.1121 75.685C45.5675 74.648 45.096 73.4381 44.0591 72.9827C39.194 70.846 35.3223 66.9943 33.1573 62.1371Z"
		fill="#DCE9FF" />
</svg>