<svg width="89" height="89" viewBox="0 0 89 89" fill="none" xmlns="http://www.w3.org/2000/svg">
	<g clip-path="url(#clip0_4119_13966)">
		<path
			d="M70.0369 13.4531L10.1652 22.3671C5.54345 23.0552 2.34305 27.3753 3.03116 31.9971L8.37957 67.9202C9.06768 72.5419 13.3878 75.7423 18.0096 75.0542L77.8813 66.1402C82.5031 65.4521 85.7035 61.132 85.0154 56.5102L79.6669 20.5872C78.9788 15.9654 74.6587 12.765 70.0369 13.4531ZM10.8784 27.1569L70.7501 18.2429C72.7308 17.948 74.5823 19.3196 74.8772 21.3003L75.5903 26.0901L8.53402 36.0737L7.8209 31.284C7.526 29.3033 8.89766 27.4518 10.8784 27.1569ZM77.1682 61.3505L17.2964 70.2645C15.3157 70.5594 13.4642 69.1877 13.1693 67.207L9.24714 40.8635L76.3035 30.8798L80.2256 57.2233C80.5205 59.2041 79.1489 61.0556 77.1682 61.3505Z"
			fill="#DCE9FF" />
		<path
			d="M24.6084 61.8319L22.2136 62.1885C20.891 62.3854 19.6591 61.4727 19.4621 60.1502L19.1056 57.7553C18.9087 56.4327 19.8213 55.2008 21.1439 55.0039L23.5388 54.6473C24.8613 54.4504 26.0933 55.3631 26.2902 56.6856L26.6467 59.0805C26.8437 60.4031 25.931 61.635 24.6084 61.8319Z"
			fill="#DCE9FF" />
	</g>
	<defs>
		<clipPath id="clip0_4119_13966">
			<rect width="77.4805" height="77.4805" fill="white" transform="translate(0 11.6407) rotate(-8.46828)" />
		</clipPath>
	</defs>
</svg>