<svg width="30" height="30" viewBox="0 0 30 30" fill="none" xmlns="http://www.w3.org/2000/svg">
	<g clip-path="url(#clip0_4119_12511)">
		<path
			d="M28.5642 8.58387C27.3396 5.98817 25.4001 3.80848 22.9568 2.27919C19.5583 0.158093 15.5329 -0.515735 11.6306 0.386609C7.72826 1.28309 4.406 3.65028 2.2849 7.04872C0.157951 10.4472 -0.515877 14.4667 0.386467 18.3749C1.28881 22.2772 3.656 25.5995 7.04858 27.7206C9.4392 29.2147 12.1814 30.0057 14.988 30.0057H15.1697C17.9646 29.9706 20.6833 29.162 23.0388 27.6737C23.7244 27.2401 23.9236 26.3378 23.49 25.6522C23.0564 24.9667 22.154 24.7675 21.4685 25.2011C19.5759 26.4022 17.3845 27.0526 15.1345 27.0819C12.8259 27.1112 10.5701 26.4725 8.60131 25.2479C5.86498 23.537 3.96069 20.8651 3.23998 17.7245C2.51928 14.5839 3.05834 11.3495 4.76928 8.61317C8.29662 2.97059 15.7615 1.24794 21.404 4.77528C23.3728 6.00575 24.9314 7.7577 25.9158 9.84364C26.8767 11.8768 27.2517 14.1327 26.9997 16.3593C26.9119 17.162 27.4861 17.8886 28.2947 17.9765C29.0974 18.0643 29.824 17.4901 29.9119 16.6815C30.2224 13.91 29.7537 11.1093 28.5642 8.58387Z"
			fill="white" />
		<path
			d="M19.8447 9.91406L12.7783 16.9805L10.1592 14.3613C9.58496 13.7871 8.65918 13.7871 8.08496 14.3613C7.51074 14.9355 7.51074 15.8613 8.08496 16.4355L11.7412 20.0918C12.0283 20.3789 12.4033 20.5195 12.7783 20.5195C13.1533 20.5195 13.5283 20.3789 13.8154 20.0918L21.9131 11.9883C22.4873 11.4141 22.4873 10.4883 21.9131 9.91406C21.3389 9.3457 20.4131 9.3457 19.8447 9.91406Z"
			fill="white" />
	</g>
	<defs>
		<clipPath id="clip0_4119_12511">
			<rect width="30" height="30" fill="white" />
		</clipPath>
	</defs>
</svg>