<svg width="27" height="27" viewBox="0 0 27 27" fill="none" xmlns="http://www.w3.org/2000/svg">
	<path fill-rule="evenodd" clip-rule="evenodd"
		d="M10.2003 19.6332C9.95599 19.3889 9.81876 19.0575 9.81876 18.712C9.81876 18.3665 9.95599 18.0351 10.2003 17.7908L14.4911 13.4999L10.2003 9.20899C9.96291 8.96324 9.83157 8.63409 9.83454 8.29244C9.83751 7.95079 9.97455 7.62397 10.2161 7.38238C10.4577 7.14079 10.7845 7.00375 11.1262 7.00078C11.4678 6.99781 11.797 7.12915 12.0428 7.36651L17.2549 12.5786C17.4992 12.823 17.6364 13.1544 17.6364 13.4999C17.6364 13.8454 17.4992 14.1768 17.2549 14.4211L12.0428 19.6332C11.7984 19.8775 11.467 20.0147 11.1215 20.0147C10.776 20.0147 10.4446 19.8775 10.2003 19.6332Z"
		fill="#1565AA" />
</svg>