<svg width="27" height="27" viewBox="0 0 27 27" fill="none" xmlns="http://www.w3.org/2000/svg">
	<path fill-rule="evenodd" clip-rule="evenodd"
		d="M16.5576 7.36662C16.8019 7.61097 16.9391 7.94234 16.9391 8.28786C16.9391 8.63338 16.8019 8.96475 16.5576 9.2091L12.2667 13.5L16.5576 17.7909C16.795 18.0366 16.9263 18.3658 16.9233 18.7074C16.9204 19.0491 16.7833 19.3759 16.5417 19.6175C16.3001 19.8591 15.9733 19.9961 15.6317 19.9991C15.29 20.002 14.9609 19.8707 14.7151 19.6333L9.503 14.4212C9.25872 14.1769 9.12149 13.8455 9.12149 13.5C9.12149 13.1545 9.25872 12.8231 9.503 12.5787L14.7151 7.36662C14.9595 7.12234 15.2908 6.98511 15.6364 6.98511C15.9819 6.98511 16.3133 7.12234 16.5576 7.36662V7.36662Z"
		fill="#1565AA" />
</svg>