<svg width="9" height="6" viewBox="0 0 9 6" fill="none" xmlns="http://www.w3.org/2000/svg">
	<g clip-path="url(#clip0_4022_148)">
		<path fill-rule="evenodd" clip-rule="evenodd"
			d="M0.969834 0.969689C1.11048 0.829086 1.30121 0.750099 1.50008 0.750099C1.69896 0.750099 1.88969 0.829086 2.03033 0.969689L4.50008 3.43944L6.96983 0.969689C7.03902 0.898056 7.12178 0.84092 7.21328 0.801613C7.30478 0.762306 7.4032 0.741616 7.50278 0.740751C7.60237 0.739886 7.70113 0.758862 7.7933 0.796572C7.88547 0.834283 7.96921 0.889973 8.03963 0.960392C8.11005 1.03081 8.16574 1.11455 8.20345 1.20672C8.24116 1.2989 8.26014 1.39766 8.25927 1.49724C8.25841 1.59682 8.23772 1.69524 8.19841 1.78674C8.1591 1.87825 8.10197 1.961 8.03033 2.03019L5.03033 5.03019C4.88969 5.17079 4.69896 5.24978 4.50008 5.24978C4.30121 5.24978 4.11048 5.17079 3.96983 5.03019L0.969834 2.03019C0.829231 1.88954 0.750244 1.69881 0.750244 1.49994C0.750244 1.30107 0.829231 1.11033 0.969834 0.969689Z"
			fill="white" />
	</g>
	<defs>
		<clipPath id="clip0_4022_148">
			<rect width="9" height="5" fill="white" transform="translate(0 0.5)" />
		</clipPath>
	</defs>
</svg>