<svg width="10" height="5" viewBox="0 0 10 5" fill="none" xmlns="http://www.w3.org/2000/svg">
	<path fill-rule="evenodd" clip-rule="evenodd"
		d="M1.39293 0.469689C1.53358 0.329086 1.72431 0.250099 1.92318 0.250099C2.12205 0.250099 2.31278 0.329086 2.45343 0.469689L4.92318 2.93944L7.39293 0.469689C7.46211 0.398056 7.54487 0.34092 7.63638 0.301613C7.72788 0.262306 7.82629 0.241616 7.92588 0.240751C8.02546 0.239886 8.12422 0.258862 8.2164 0.296572C8.30857 0.334283 8.39231 0.389973 8.46273 0.460392C8.53314 0.530812 8.58884 0.614551 8.62655 0.706723C8.66426 0.798896 8.68323 0.897655 8.68237 0.99724C8.6815 1.09682 8.66081 1.19524 8.62151 1.28674C8.5822 1.37825 8.52506 1.461 8.45343 1.53019L5.45343 4.53019C5.31278 4.67079 5.12205 4.74978 4.92318 4.74978C4.72431 4.74978 4.53358 4.67079 4.39293 4.53019L1.39293 1.53019C1.25233 1.38954 1.17334 1.19881 1.17334 0.999939C1.17334 0.801066 1.25233 0.610335 1.39293 0.469689Z"
		fill="#175CD8" />
</svg>