<svg width="22" height="22" viewBox="0 0 22 22" fill="none" xmlns="http://www.w3.org/2000/svg">
	<path
		d="M12.8358 17.3683C12.2825 17.4729 11.7207 17.5253 11.1576 17.5249C7.14973 17.5249 3.75761 14.8909 2.61646 11.2598C2.92369 10.2825 3.39691 9.36542 4.01537 8.54875M13.0551 13.1572L9.2584 9.36143C9.76198 8.85784 10.445 8.57493 11.1572 8.57493C11.8694 8.57493 12.5524 8.85784 13.056 9.36143C13.5596 9.86502 13.8425 10.548 13.8425 11.2602C13.8425 11.9724 13.5596 12.6554 13.056 13.159L16.0015 16.1036M9.26019 9.36232L6.31557 6.41771M6.31557 6.41771L3.10245 3.20459M6.31557 6.41771C7.75866 5.4865 9.44017 4.99231 11.1576 4.99463C15.1655 4.99463 18.5576 7.62867 19.6988 11.2598C19.0687 13.2561 17.7605 14.9692 16.0006 16.1027L19.2128 19.3149"
		stroke="#273A73" stroke-width="1.79004" stroke-linecap="round" stroke-linejoin="round" />
</svg>