<svg width="20" height="20" viewBox="0 0 20 20" fill="none" xmlns="http://www.w3.org/2000/svg">
	<path
		d="M11.7683 16.825C11.1853 16.9419 10.5933 17.0005 10 17C5.7768 17 2.20245 14.057 1 10C1.32374 8.9081 1.82238 7.88346 2.47406 6.971M11.9994 12.12L7.99874 7.879C8.52939 7.31634 9.24909 7.00025 9.99953 7.00025C10.75 7.00025 11.4697 7.31634 12.0003 7.879C12.531 8.44166 12.8291 9.20478 12.8291 10.0005C12.8291 10.7962 12.531 11.5593 12.0003 12.122L15.1041 15.412M8.00063 7.88L4.89783 4.59M4.89783 4.59L1.5121 1M4.89783 4.59C6.41844 3.54957 8.19029 2.9974 10 3C14.2232 3 17.7975 5.943 19 10C18.3361 12.2305 16.9576 14.1446 15.1031 15.411L18.4879 19"
		stroke="white" stroke-width="1.92431" stroke-linecap="round" stroke-linejoin="round" />
</svg>