<svg width="18" height="18" viewBox="0 0 18 18" fill="none" xmlns="http://www.w3.org/2000/svg">
	<path
		d="M1 15.1814V7.06155C0.999956 6.76222 1.07214 6.46752 1.21014 6.20358C1.34815 5.93964 1.5477 5.71462 1.79111 5.5485L8.01333 1.30579C8.30548 1.10641 8.6488 1 9 1C9.3512 1 9.69452 1.10641 9.98667 1.30579L16.2089 5.5485C16.4523 5.71462 16.6519 5.93964 16.7899 6.20358C16.9279 6.46752 17 6.76222 17 7.06155V15.1814M1 15.1814C1 15.6637 1.1873 16.1263 1.5207 16.4674C1.8541 16.8084 2.30628 17 2.77778 17H15.2222C15.6937 17 16.1459 16.8084 16.4793 16.4674C16.8127 16.1263 17 15.6637 17 15.1814M1 15.1814L7 11.0897M17 15.1814L11 11.0897M7 11.0897L1 6.9979M7 11.0897L8.01333 11.7807C8.30548 11.9801 8.6488 12.0865 9 12.0865C9.3512 12.0865 9.69452 11.9801 9.98667 11.7807L11 11.0897M11 11.0897L17 6.9979"
		stroke="white" stroke-width="1.5" stroke-linecap="round" stroke-linejoin="round" />
</svg>