<svg width="21" height="21" viewBox="0 0 21 21" fill="none" xmlns="http://www.w3.org/2000/svg">
	<path
		d="M17.3028 3.91063L13.051 2.30877C12.2858 2.05585 11.5204 2.14016 10.9252 2.5617C10.6701 2.73032 10.5 2.89893 10.3299 3.06755H7.09867C5.82316 3.06755 4.71771 4.16356 4.71771 5.42818V6.27126C4.71771 6.60849 4.97282 6.94572 5.39799 6.94572C5.82316 6.94572 6.07826 6.60849 6.07826 6.27126V5.42818C6.07826 4.83802 6.58846 4.41648 7.09867 4.41648H9.90478V16.6412H7.09867C6.50343 16.6412 6.07826 16.1353 6.07826 15.6294V14.7864C6.07826 14.4492 5.82316 14.1119 5.39799 14.1119C4.97282 14.1119 4.71771 14.3648 4.71771 14.7021V15.5452C4.71771 16.8098 5.73813 17.9058 7.09867 17.9058H10.3299C10.5 18.0744 10.6701 18.3273 10.8402 18.4117C11.2654 18.6646 11.6905 18.8332 12.2007 18.8332C12.4558 18.8332 12.7959 18.7488 13.051 18.6646L17.3028 17.0627C18.2381 16.7255 18.8334 15.8824 18.8334 14.8707V6.01833C18.8334 5.09095 18.1531 4.16356 17.3028 3.91063Z"
		fill="#1141A4" />
	<path
		d="M5.82315 11.7511C5.56805 12.004 5.56805 12.4256 5.82315 12.6785C5.90819 12.7629 6.07825 12.8471 6.24832 12.8471C6.41839 12.8471 6.58845 12.7629 6.67349 12.6785L8.37417 10.9924C8.4592 10.908 8.4592 10.8238 8.54424 10.8238C8.54424 10.7394 8.62927 10.6551 8.62927 10.5709C8.62927 10.4865 8.62927 10.4022 8.54424 10.3179C8.54424 10.2336 8.4592 10.1493 8.37417 10.1493L6.67349 8.46313C6.41839 8.21021 5.99322 8.21021 5.73811 8.46313C5.48301 8.71606 5.48301 9.13761 5.73811 9.39053L6.33335 9.9807H2.84696C2.50682 9.9807 2.16669 10.2336 2.16669 10.6551C2.16669 11.0767 2.42179 11.3296 2.84696 11.3296H6.41839L5.82315 11.7511Z"
		fill="#1141A4" />
</svg>