<svg width="18" height="18" viewBox="0 0 18 18" fill="none" xmlns="http://www.w3.org/2000/svg">
	<path
		d="M16.3463 1.88366L11.7544 0.153652C10.9279 -0.119507 10.1013 -0.0284541 9.45848 0.426811C9.18298 0.608917 8.9993 0.791023 8.81561 0.973129H5.32583C3.94828 0.973129 2.75439 2.15682 2.75439 3.52261V4.43313C2.75439 4.79735 3.02991 5.16156 3.48909 5.16156C3.94828 5.16156 4.22379 4.79735 4.22379 4.43313V3.52261C4.22379 2.88524 4.7748 2.42998 5.32583 2.42998H8.35643V15.6326H5.32583C4.68297 15.6326 4.22379 15.0863 4.22379 14.54V13.6295C4.22379 13.2653 3.94828 12.9011 3.48909 12.9011C3.02991 12.9011 2.75439 13.1742 2.75439 13.5384V14.449C2.75439 15.8147 3.85644 16.9984 5.32583 16.9984H8.81561C8.9993 17.1806 9.18299 17.4537 9.36668 17.5448C9.82586 17.8179 10.285 18 10.836 18C11.1115 18 11.4789 17.9089 11.7544 17.8179L16.3463 16.0879C17.3564 15.7237 17.9993 14.8132 17.9993 13.7205V4.15997C17.9993 3.1584 17.2646 2.15682 16.3463 1.88366Z"
		fill="white" />
	<path
		d="M3.94801 10.3511C3.67249 10.6243 3.67249 11.0796 3.94801 11.3527C4.03984 11.4438 4.22352 11.5348 4.40719 11.5348C4.59086 11.5348 4.77453 11.4438 4.86637 11.3527L6.7031 9.53166C6.79494 9.44058 6.79494 9.34959 6.88678 9.34959C6.88678 9.25851 6.97861 9.16743 6.97861 9.07644C6.97861 8.98536 6.97861 8.89428 6.88678 8.80329C6.88678 8.71221 6.79494 8.62113 6.7031 8.62113L4.86637 6.80008C4.59086 6.52693 4.13168 6.52693 3.85616 6.80008C3.58065 7.07324 3.58065 7.52853 3.85616 7.80168L4.49902 8.43906H0.73372C0.366367 8.43906 -0.000976562 8.71221 -0.000976562 9.16743C-0.000976562 9.62274 0.274531 9.89589 0.73372 9.89589H4.59086L3.94801 10.3511Z"
		fill="white" />
</svg>