<svg width="72" height="73" viewBox="0 0 72 73" fill="none" xmlns="http://www.w3.org/2000/svg">
	<path fill-rule="evenodd" clip-rule="evenodd"
		d="M36 72.6923C45.5478 72.6923 54.7045 68.8994 61.4558 62.1481C68.2072 55.3968 72 46.2401 72 36.6923C72 27.1445 68.2072 17.9877 61.4558 11.2364C54.7045 4.48511 45.5478 0.692261 36 0.692261C26.4522 0.692261 17.2955 4.48511 10.5442 11.2364C3.79285 17.9877 0 27.1445 0 36.6923C0 46.2401 3.79285 55.3968 10.5442 62.1481C17.2955 68.8994 26.4522 72.6923 36 72.6923ZM33.9975 23.9483C33.3198 23.4961 32.5321 23.2364 31.7183 23.1969C30.9046 23.1574 30.0954 23.3395 29.3771 23.7238C28.6587 24.1082 28.0582 24.6803 27.6396 25.3792C27.2209 26.0781 26.9999 26.8776 27 27.6923V45.6923C26.9999 46.507 27.2209 47.3064 27.6396 48.0053C28.0582 48.7042 28.6587 49.2764 29.3771 49.6607C30.0954 50.045 30.9046 50.2272 31.7183 50.1876C32.5321 50.1481 33.3198 49.8884 33.9975 49.4363L47.4975 40.4363C48.1138 40.0253 48.6191 39.4686 48.9686 38.8154C49.3181 38.1623 49.501 37.433 49.501 36.6923C49.501 35.9515 49.3181 35.2222 48.9686 34.5691C48.6191 33.916 48.1138 33.3592 47.4975 32.9483L33.9975 23.9483Z"
		fill="white" />
</svg>