<svg width="72" height="72" viewBox="0 0 72 72" fill="none" xmlns="http://www.w3.org/2000/svg">
	<path
		d="M46.983 46.6471C49.047 46.4671 50.643 44.6551 50.538 42.4891C50.43 40.3201 48.654 38.5831 46.488 38.5831H46.344C44.109 38.6551 42.366 40.5361 42.435 42.7741C42.507 43.9111 42.972 44.8351 43.608 45.5071C41.127 50.3341 37.398 53.8891 31.746 56.8711C27.948 58.8601 23.934 59.6071 20.031 59.0731C16.764 58.6141 14.211 57.1531 12.642 54.8101C10.302 51.2551 10.086 47.4241 12.039 43.5901C13.464 40.8181 15.594 38.7931 17.013 37.7971C16.659 36.8761 16.233 35.3161 16.02 34.1431C5.50201 41.6731 6.57601 51.9691 9.76801 56.8351C12.15 60.3871 17.013 62.6581 22.338 62.6581C23.76 62.6581 25.254 62.5531 26.709 62.1961C35.94 60.4201 42.936 54.8821 46.95 46.7161L46.983 46.6471Z"
		fill="#1141A4" />
	<path
		d="M59.661 37.767C54.159 31.305 46.062 27.756 36.828 27.756H35.619C35.019 26.442 33.636 25.623 32.07 25.623H31.962C29.73 25.623 27.987 27.543 28.059 29.778C28.128 31.908 29.94 33.684 32.109 33.684H32.286C33.885 33.615 35.268 32.622 35.835 31.2H37.152C42.624 31.2 47.805 32.796 52.53 35.922C56.148 38.298 58.746 41.424 60.201 45.153C61.476 48.21 61.407 51.192 60.096 53.682C58.071 57.588 54.66 59.646 50.154 59.646C47.313 59.646 44.541 58.758 43.119 58.119C42.27 58.824 40.845 59.997 39.813 60.708C42.939 62.127 46.101 62.946 49.152 62.946C56.079 62.946 61.221 59.04 63.18 55.275C65.307 51.009 65.133 43.836 59.697 37.698L59.661 37.767Z"
		fill="#1141A4" />
	<path
		d="M22.941 47.925C23.01 50.055 24.819 51.831 26.991 51.831H27.135C29.406 51.762 31.146 49.881 31.041 47.64C31.041 45.51 29.193 43.737 27.027 43.737H26.883C26.739 43.737 26.529 43.737 26.349 43.803C23.403 38.832 22.158 33.501 22.623 27.756C22.905 23.421 24.324 19.656 26.883 16.53C29.013 13.866 33.027 12.552 35.763 12.48C43.431 12.336 46.629 21.894 46.875 25.692L50.427 26.754C49.608 15.108 42.366 9 35.439 9C28.941 9 22.941 13.722 20.526 20.652C17.22 29.883 19.389 38.76 23.439 45.864C23.085 46.326 22.872 47.142 22.941 47.925Z"
		fill="#1141A4" />
</svg>