<svg width="21" height="22" viewBox="0 0 21 22" fill="none" xmlns="http://www.w3.org/2000/svg">
	<path
		d="M7.93774 17.8706C9.58995 17.8706 11.1088 17.3023 12.3207 16.3598L16.2552 20.2943L17.5207 19.0288L13.5862 15.0943C14.5296 13.8815 15.0979 12.3627 15.0979 10.7104C15.0979 6.76252 11.8857 3.55029 7.93774 3.55029C3.98981 3.55029 0.777588 6.76252 0.777588 10.7104C0.777588 14.6584 3.98981 17.8706 7.93774 17.8706ZM7.93774 5.34033C10.8994 5.34033 13.3079 7.74883 13.3079 10.7104C13.3079 13.6721 10.8994 16.0806 7.93774 16.0806C4.97612 16.0806 2.56763 13.6721 2.56763 10.7104C2.56763 7.74883 4.97612 5.34033 7.93774 5.34033Z"
		fill="#273A73" />
</svg>