<svg width="18" height="18" viewBox="0 0 18 18" fill="none" xmlns="http://www.w3.org/2000/svg">
	<path
		d="M13.1101 18C13.1146 18 13.1308 18 13.1353 18C13.6105 18 14.0596 17.8128 14.3999 17.4726L16.8408 15.0317C17.1927 14.6797 17.1927 14.1109 16.8408 13.759L13.2406 10.1588C12.8887 9.80689 12.3199 9.80689 11.968 10.1588L10.5333 11.5935C9.86818 11.3955 8.62703 10.9454 7.8404 10.1588C7.05377 9.37217 6.60375 8.13101 6.40575 7.46587L7.8404 6.0312C8.19232 5.67928 8.19232 5.11046 7.8404 4.75854L4.24026 1.15836C3.90275 0.820841 3.30512 0.820841 2.96761 1.15836L0.527615 3.59928C0.185602 3.9413 -0.00700538 4.41112 0.000194898 4.89084C0.0208957 6.17251 0.360209 10.6241 3.86855 14.1325C7.37688 17.6409 11.8285 17.9793 13.1101 18ZM3.60484 3.06735L5.93233 5.39487L4.76858 6.55863C4.55347 6.77284 4.46167 7.08245 4.52467 7.37947C4.54627 7.48297 5.07459 9.9374 6.56865 11.4315C8.06271 12.9255 10.5171 13.4539 10.6206 13.4755C10.9203 13.5385 11.2272 13.4467 11.4414 13.2316L12.6052 12.0678L14.9327 14.3953L13.1272 16.1999C12.004 16.181 8.16081 15.8795 5.1412 12.8589C2.11168 9.82939 1.81827 5.9727 1.80027 4.87194L3.60484 3.06735ZM16.1999 8.0995H18C18 3.48227 14.5142 0 9.89068 0V1.80009C13.5466 1.80009 16.1999 4.44892 16.1999 8.0995Z"
		fill="white" />
	<path
		d="M9.89941 5.40019C11.7922 5.40019 12.5995 6.20753 12.5995 8.10032H14.3996C14.3996 5.19768 12.802 3.6001 9.89941 3.6001V5.40019Z"
		fill="white" />
</svg>