<svg width="21" height="21" viewBox="0 0 21 21" fill="none" xmlns="http://www.w3.org/2000/svg">
	<path
		d="M14.305 18.8323C14.3092 18.8323 14.3242 18.8323 14.3284 18.8323C14.7684 18.8323 15.1842 18.659 15.4992 18.344L17.7592 16.084C18.085 15.7582 18.085 15.2315 17.7592 14.9057L14.4259 11.5723C14.1 11.2465 13.5734 11.2465 13.2475 11.5723L11.9192 12.9007C11.3034 12.7173 10.1542 12.3007 9.42585 11.5723C8.69752 10.844 8.28085 9.69484 8.09752 9.079L9.42585 7.75067C9.75169 7.42484 9.75169 6.89817 9.42585 6.57234L6.09252 3.239C5.78002 2.9265 5.22668 2.9265 4.91418 3.239L2.65502 5.499C2.33835 5.81567 2.16002 6.25067 2.16668 6.69484C2.18585 7.8815 2.50002 12.0032 5.74835 15.2515C8.99668 18.4998 13.1184 18.8132 14.305 18.8323ZM5.50418 5.0065L7.65918 7.1615L6.58168 8.239C6.38252 8.43734 6.29752 8.724 6.35585 8.999C6.37585 9.09484 6.86502 11.3673 8.24835 12.7507C9.63168 14.134 11.9042 14.6232 12 14.6432C12.2775 14.7015 12.5617 14.6165 12.76 14.4173L13.8375 13.3398L15.9925 15.4948L14.3209 17.1657C13.2809 17.1482 9.72252 16.869 6.92668 14.0723C4.12168 11.2673 3.85002 7.6965 3.83335 6.67734L5.50418 5.0065ZM17.1659 9.66567H18.8325C18.8325 5.39067 15.605 2.1665 11.3242 2.1665V3.83317C14.7092 3.83317 17.1659 6.28567 17.1659 9.66567Z"
		fill="#C0D4FF" />
	<path
		d="M11.3325 7.16667C13.085 7.16667 13.8325 7.91417 13.8325 9.66667H15.4992C15.4992 6.97917 14.02 5.5 11.3325 5.5V7.16667Z"
		fill="#C0D4FF" />
</svg>