<svg width="14" height="14" viewBox="0 0 14 14" fill="none" xmlns="http://www.w3.org/2000/svg">
	<path
		d="M12.5878 3.99898C12.6695 3.72773 12.5878 3.52881 12.2017 3.52881H10.9224C10.5969 3.52881 10.4482 3.70089 10.3665 3.88989C10.3665 3.88989 9.71608 5.47598 8.79441 6.50439C8.49691 6.80364 8.361 6.89814 8.19883 6.89814C8.11775 6.89814 7.99991 6.80364 7.99991 6.53239V3.99898C7.99991 3.67348 7.906 3.52881 7.63475 3.52881H5.62458C5.42158 3.52881 5.29908 3.67931 5.29908 3.82281C5.29908 4.13081 5.75991 4.20198 5.80716 5.06998V6.95298C5.80716 7.36539 5.73308 7.44064 5.56975 7.44064C5.13633 7.44064 4.08166 5.84873 3.45575 4.02639C3.33383 3.67231 3.21075 3.52939 2.88408 3.52939H1.60541C1.23966 3.52939 1.16675 3.70148 1.16675 3.89048C1.16675 4.22998 1.60016 5.90998 3.18566 8.13189C4.24266 9.64914 5.73075 10.4716 7.08641 10.4716C7.899 10.4716 7.99933 10.2891 7.99933 9.97406V8.82723C7.99933 8.46206 8.07691 8.38856 8.33416 8.38856C8.52316 8.38856 8.84866 8.48423 9.60758 9.21514C10.4744 10.082 10.6179 10.4711 11.105 10.4711H12.3837C12.7488 10.4711 12.9314 10.2885 12.8264 9.92797C12.7115 9.56922 12.2973 9.04714 11.7478 8.42939C11.4492 8.07706 11.0029 7.69789 10.867 7.50831C10.6774 7.26389 10.7322 7.15598 10.867 6.93898C10.867 6.93898 12.4257 4.74506 12.5878 3.99898Z"
		fill="#5278C8" />
</svg>