<svg width="15" height="14" viewBox="0 0 15 14" fill="none" xmlns="http://www.w3.org/2000/svg">
	<path
		d="M13.0881 3.99898C13.1697 3.72773 13.0881 3.52881 12.7019 3.52881H11.4227C11.0972 3.52881 10.9484 3.70089 10.8667 3.88989C10.8667 3.88989 10.2163 5.47598 9.29466 6.50439C8.99716 6.80364 8.86124 6.89814 8.69908 6.89814C8.61799 6.89814 8.50016 6.80364 8.50016 6.53239V3.99898C8.50016 3.67348 8.40624 3.52881 8.13499 3.52881H6.12483C5.92183 3.52881 5.79932 3.67931 5.79932 3.82281C5.79932 4.13081 6.26016 4.20198 6.30741 5.06998V6.95298C6.30741 7.36539 6.23333 7.44064 6.06999 7.44064C5.63658 7.44064 4.58191 5.84873 3.95599 4.02639C3.83408 3.67231 3.71099 3.52939 3.38433 3.52939H2.10566C1.73991 3.52939 1.66699 3.70148 1.66699 3.89048C1.66699 4.22998 2.10041 5.90998 3.68591 8.13189C4.74291 9.64914 6.23099 10.4716 7.58666 10.4716C8.39924 10.4716 8.49958 10.2891 8.49958 9.97406V8.82723C8.49958 8.46206 8.57716 8.38856 8.83441 8.38856C9.02341 8.38856 9.34891 8.48423 10.1078 9.21514C10.9747 10.082 11.1182 10.4711 11.6052 10.4711H12.8839C13.2491 10.4711 13.4317 10.2885 13.3267 9.92797C13.2117 9.56922 12.7976 9.04714 12.2481 8.42939C11.9494 8.07706 11.5032 7.69789 11.3672 7.50831C11.1777 7.26389 11.2325 7.15598 11.3672 6.93898C11.3672 6.93898 12.9259 4.74506 13.0881 3.99898Z"
		fill="white" />
</svg>