<svg width="16" height="16" viewBox="0 0 16 16" fill="none" xmlns="http://www.w3.org/2000/svg">
<g clip-path="url(#clip0_97_4467)">
<path d="M8.00008 0.666504C6.54969 0.666504 5.13186 1.0966 3.9259 1.90239C2.71994 2.70819 1.78001 3.8535 1.22497 5.19349C0.669925 6.53348 0.524701 8.00797 0.807659 9.4305C1.09062 10.853 1.78905 12.1597 2.81464 13.1853C3.84022 14.2109 5.1469 14.9093 6.56942 15.1923C7.99195 15.4752 9.46644 15.33 10.8064 14.775C12.1464 14.2199 13.2917 13.28 14.0975 12.074C14.9033 10.8681 15.3334 9.45023 15.3334 7.99984C15.3311 6.05562 14.5578 4.19169 13.183 2.81692C11.8082 1.44215 9.9443 0.668798 8.00008 0.666504ZM8.00008 13.9998C6.8134 13.9998 5.65336 13.6479 4.66666 12.9887C3.67997 12.3294 2.91093 11.3923 2.45681 10.2959C2.00268 9.19958 1.88386 7.99318 2.11537 6.8293C2.34688 5.66541 2.91833 4.59631 3.75744 3.7572C4.59656 2.91808 5.66566 2.34664 6.82954 2.11513C7.99343 1.88361 9.19983 2.00243 10.2962 2.45656C11.3925 2.91069 12.3296 3.67972 12.9889 4.66642C13.6482 5.65311 14.0001 6.81315 14.0001 7.99984C13.9981 9.59054 13.3654 11.1155 12.2406 12.2403C11.1158 13.3651 9.59079 13.9979 8.00008 13.9998Z" fill="#C0D4FF"/>
<path d="M8.66659 7.72416V4.00016C8.66659 3.82335 8.59635 3.65378 8.47132 3.52876C8.3463 3.40373 8.17673 3.3335 7.99992 3.3335C7.82311 3.3335 7.65354 3.40373 7.52851 3.52876C7.40349 3.65378 7.33325 3.82335 7.33325 4.00016V8.00016C7.33329 8.17696 7.40355 8.3465 7.52859 8.4715L9.52859 10.4715C9.65432 10.5929 9.82272 10.6601 9.99752 10.6586C10.1723 10.6571 10.3395 10.587 10.4631 10.4634C10.5867 10.3398 10.6568 10.1726 10.6584 9.99776C10.6599 9.82297 10.5927 9.65456 10.4713 9.52883L8.66659 7.72416Z" fill="#C0D4FF"/>
</g>
<defs>
<clipPath id="clip0_97_4467">
<rect width="16" height="16" fill="white"/>
</clipPath>
</defs>
</svg>
